<mxfile host="app.diagrams.net" modified="2024-01-07T11:54:09.224Z" agent="Mozilla/5.0 (Windows NT 10.0; Win64; x64) AppleWebKit/537.36 (KHTML, like Gecko) Chrome/120.0.0.0 Safari/537.36" etag="_foIWb6Twd6OkSjoY97L" version="22.1.17" type="device">
  <diagram name="‫עמוד-1‬" id="EFJ8cKsfK1uDPPwss7db">
    <mxGraphModel dx="820" dy="839" grid="1" gridSize="10" guides="1" tooltips="1" connect="1" arrows="1" fold="1" page="1" pageScale="1" pageWidth="827" pageHeight="1169" math="0" shadow="0">
      <root>
        <mxCell id="0" />
        <mxCell id="1" parent="0" />
        <mxCell id="qB0KGvQL3f1pAaCrQ6TO-26" value="" style="group" parent="1" vertex="1" connectable="0">
          <mxGeometry x="1150" y="240" width="880" height="800" as="geometry" />
        </mxCell>
        <mxCell id="qB0KGvQL3f1pAaCrQ6TO-1" value="" style="swimlane;startSize=0;" parent="qB0KGvQL3f1pAaCrQ6TO-26" vertex="1">
          <mxGeometry y="133.33333333333334" width="741.9607843137255" height="666.6666666666667" as="geometry" />
        </mxCell>
        <mxCell id="qB0KGvQL3f1pAaCrQ6TO-2" value="&lt;font style=&quot;font-size: 20px;&quot;&gt;תקשורה רגילה&lt;/font&gt;" style="ellipse;whiteSpace=wrap;html=1;aspect=fixed;fillColor=#d5e8d4;strokeColor=#82b366;" parent="qB0KGvQL3f1pAaCrQ6TO-1" vertex="1">
          <mxGeometry y="516.6666666666667" width="120" height="120" as="geometry" />
        </mxCell>
        <mxCell id="qB0KGvQL3f1pAaCrQ6TO-3" style="edgeStyle=orthogonalEdgeStyle;rounded=0;orthogonalLoop=1;jettySize=auto;html=1;entryX=0.5;entryY=1;entryDx=0;entryDy=0;startArrow=classic;startFill=1;" parent="qB0KGvQL3f1pAaCrQ6TO-1" source="qB0KGvQL3f1pAaCrQ6TO-4" target="qB0KGvQL3f1pAaCrQ6TO-16" edge="1">
          <mxGeometry relative="1" as="geometry" />
        </mxCell>
        <mxCell id="qB0KGvQL3f1pAaCrQ6TO-4" value="&lt;font style=&quot;font-size: 20px;&quot;&gt;לוגיקה&lt;/font&gt;" style="ellipse;whiteSpace=wrap;html=1;aspect=fixed;fillColor=#e1d5e7;strokeColor=#9673a6;" parent="qB0KGvQL3f1pAaCrQ6TO-1" vertex="1">
          <mxGeometry x="270.0039215686275" y="216.66666666666669" width="121.62601626016263" height="121.62601626016263" as="geometry" />
        </mxCell>
        <mxCell id="qB0KGvQL3f1pAaCrQ6TO-5" style="edgeStyle=orthogonalEdgeStyle;rounded=0;orthogonalLoop=1;jettySize=auto;html=1;entryX=0.5;entryY=0;entryDx=0;entryDy=0;startArrow=classic;startFill=1;" parent="qB0KGvQL3f1pAaCrQ6TO-1" source="qB0KGvQL3f1pAaCrQ6TO-8" target="qB0KGvQL3f1pAaCrQ6TO-2" edge="1">
          <mxGeometry relative="1" as="geometry" />
        </mxCell>
        <mxCell id="qB0KGvQL3f1pAaCrQ6TO-8" value="&lt;font style=&quot;font-size: 15px;&quot;&gt;הצפנה\פענוח&lt;/font&gt;" style="ellipse;whiteSpace=wrap;html=1;aspect=fixed;fillColor=#ffe6cc;strokeColor=#d79b00;" parent="qB0KGvQL3f1pAaCrQ6TO-1" vertex="1">
          <mxGeometry y="350.00000000000006" width="121.62601626016263" height="121.62601626016263" as="geometry" />
        </mxCell>
        <mxCell id="qB0KGvQL3f1pAaCrQ6TO-9" style="edgeStyle=orthogonalEdgeStyle;rounded=0;orthogonalLoop=1;jettySize=auto;html=1;entryX=0.5;entryY=0;entryDx=0;entryDy=0;startArrow=classic;startFill=1;" parent="qB0KGvQL3f1pAaCrQ6TO-1" source="qB0KGvQL3f1pAaCrQ6TO-11" target="qB0KGvQL3f1pAaCrQ6TO-8" edge="1">
          <mxGeometry relative="1" as="geometry" />
        </mxCell>
        <mxCell id="qB0KGvQL3f1pAaCrQ6TO-10" style="edgeStyle=orthogonalEdgeStyle;rounded=0;orthogonalLoop=1;jettySize=auto;html=1;startArrow=classic;startFill=1;" parent="qB0KGvQL3f1pAaCrQ6TO-1" source="qB0KGvQL3f1pAaCrQ6TO-11" target="qB0KGvQL3f1pAaCrQ6TO-4" edge="1">
          <mxGeometry relative="1" as="geometry" />
        </mxCell>
        <mxCell id="qB0KGvQL3f1pAaCrQ6TO-11" value="&lt;font style=&quot;font-size: 20px;&quot;&gt;פרוטוקול&lt;/font&gt;" style="ellipse;whiteSpace=wrap;html=1;aspect=fixed;fillColor=#f8cecc;strokeColor=#b85450;" parent="qB0KGvQL3f1pAaCrQ6TO-1" vertex="1">
          <mxGeometry y="175.00000000000003" width="121.62601626016263" height="121.62601626016263" as="geometry" />
        </mxCell>
        <mxCell id="qB0KGvQL3f1pAaCrQ6TO-34" style="edgeStyle=orthogonalEdgeStyle;rounded=0;orthogonalLoop=1;jettySize=auto;html=1;entryX=1;entryY=0;entryDx=0;entryDy=0;" parent="qB0KGvQL3f1pAaCrQ6TO-1" source="qB0KGvQL3f1pAaCrQ6TO-13" target="qB0KGvQL3f1pAaCrQ6TO-4" edge="1">
          <mxGeometry relative="1" as="geometry">
            <Array as="points">
              <mxPoint x="635" y="127" />
              <mxPoint x="410" y="127" />
              <mxPoint x="410" y="234" />
            </Array>
          </mxGeometry>
        </mxCell>
        <mxCell id="qB0KGvQL3f1pAaCrQ6TO-13" value="ניטור&amp;nbsp;" style="rhombus;whiteSpace=wrap;html=1;fillColor=#dae8fc;strokeColor=#6c8ebf;" parent="qB0KGvQL3f1pAaCrQ6TO-1" vertex="1">
          <mxGeometry x="562.0822132688689" y="0.006019656019683833" width="145.36663980660754" height="99.91809991809994" as="geometry" />
        </mxCell>
        <mxCell id="qB0KGvQL3f1pAaCrQ6TO-14" style="edgeStyle=orthogonalEdgeStyle;rounded=0;orthogonalLoop=1;jettySize=auto;html=1;startArrow=classic;startFill=1;" parent="qB0KGvQL3f1pAaCrQ6TO-1" source="qB0KGvQL3f1pAaCrQ6TO-16" edge="1">
          <mxGeometry relative="1" as="geometry">
            <mxPoint x="120.78431372549021" y="-33.33333333333334" as="targetPoint" />
          </mxGeometry>
        </mxCell>
        <mxCell id="qB0KGvQL3f1pAaCrQ6TO-16" value="&lt;span style=&quot;font-size: 16px;&quot;&gt;עבודה עם מערכת הקבצים&amp;nbsp;&lt;/span&gt;" style="ellipse;whiteSpace=wrap;html=1;aspect=fixed;" parent="qB0KGvQL3f1pAaCrQ6TO-1" vertex="1">
          <mxGeometry x="310.5882352941177" y="-0.0833333333333523" width="121.62601626016263" height="121.62601626016263" as="geometry" />
        </mxCell>
        <mxCell id="qB0KGvQL3f1pAaCrQ6TO-30" style="edgeStyle=orthogonalEdgeStyle;rounded=0;orthogonalLoop=1;jettySize=auto;html=1;" parent="qB0KGvQL3f1pAaCrQ6TO-1" source="qB0KGvQL3f1pAaCrQ6TO-17" edge="1">
          <mxGeometry relative="1" as="geometry">
            <mxPoint x="840" y="217.47634146341454" as="targetPoint" />
          </mxGeometry>
        </mxCell>
        <mxCell id="qB0KGvQL3f1pAaCrQ6TO-31" style="edgeStyle=orthogonalEdgeStyle;rounded=0;orthogonalLoop=1;jettySize=auto;html=1;startArrow=classic;startFill=1;" parent="qB0KGvQL3f1pAaCrQ6TO-1" source="qB0KGvQL3f1pAaCrQ6TO-17" target="qB0KGvQL3f1pAaCrQ6TO-4" edge="1">
          <mxGeometry relative="1" as="geometry">
            <Array as="points">
              <mxPoint x="489" y="227" />
              <mxPoint x="489" y="277" />
            </Array>
          </mxGeometry>
        </mxCell>
        <mxCell id="qB0KGvQL3f1pAaCrQ6TO-33" style="edgeStyle=orthogonalEdgeStyle;rounded=0;orthogonalLoop=1;jettySize=auto;html=1;entryX=0.5;entryY=0;entryDx=0;entryDy=0;startArrow=classic;startFill=1;" parent="qB0KGvQL3f1pAaCrQ6TO-1" source="qB0KGvQL3f1pAaCrQ6TO-17" target="qB0KGvQL3f1pAaCrQ6TO-32" edge="1">
          <mxGeometry relative="1" as="geometry" />
        </mxCell>
        <mxCell id="qB0KGvQL3f1pAaCrQ6TO-17" value="ממשק משתמש" style="ellipse;whiteSpace=wrap;html=1;aspect=fixed;fillColor=#0050ef;fontColor=#ffffff;strokeColor=#001DBC;" parent="qB0KGvQL3f1pAaCrQ6TO-1" vertex="1">
          <mxGeometry x="585.8270588235296" y="156.66333333333336" width="121.62601626016263" height="121.62601626016263" as="geometry" />
        </mxCell>
        <mxCell id="qB0KGvQL3f1pAaCrQ6TO-18" value="&lt;font style=&quot;font-size: 20px;&quot;&gt;ניטור&amp;nbsp;&lt;/font&gt;" style="ellipse;whiteSpace=wrap;html=1;aspect=fixed;fillColor=#ffff88;strokeColor=#36393d;" parent="qB0KGvQL3f1pAaCrQ6TO-1" vertex="1">
          <mxGeometry x="259.9982352941177" y="516.6633333333335" width="120" height="120" as="geometry" />
        </mxCell>
        <mxCell id="qB0KGvQL3f1pAaCrQ6TO-19" value="&lt;font style=&quot;font-size: 20px;&quot;&gt;העלאה&lt;/font&gt;" style="ellipse;whiteSpace=wrap;html=1;aspect=fixed;fillColor=#ffcd28;strokeColor=#d79b00;gradientColor=#ffa500;" parent="qB0KGvQL3f1pAaCrQ6TO-1" vertex="1">
          <mxGeometry x="129.99901960784314" y="516.6633333333335" width="120" height="120" as="geometry" />
        </mxCell>
        <mxCell id="qB0KGvQL3f1pAaCrQ6TO-58" style="edgeStyle=orthogonalEdgeStyle;rounded=0;orthogonalLoop=1;jettySize=auto;html=1;entryX=1;entryY=0.5;entryDx=0;entryDy=0;startArrow=classic;startFill=1;" parent="qB0KGvQL3f1pAaCrQ6TO-1" source="qB0KGvQL3f1pAaCrQ6TO-27" target="qB0KGvQL3f1pAaCrQ6TO-8" edge="1">
          <mxGeometry relative="1" as="geometry">
            <Array as="points">
              <mxPoint x="552" y="447" />
              <mxPoint x="313" y="447" />
              <mxPoint x="313" y="411" />
            </Array>
          </mxGeometry>
        </mxCell>
        <mxCell id="qB0KGvQL3f1pAaCrQ6TO-27" value="&lt;span style=&quot;font-size: 20px;&quot;&gt;לקוח הורדה&amp;nbsp;&lt;/span&gt;" style="ellipse;whiteSpace=wrap;html=1;aspect=fixed;fillColor=#b1ddf0;strokeColor=#10739e;" parent="qB0KGvQL3f1pAaCrQ6TO-1" vertex="1">
          <mxGeometry x="504.00000000000006" y="542.38" width="100" height="100" as="geometry" />
        </mxCell>
        <mxCell id="qB0KGvQL3f1pAaCrQ6TO-28" value="&lt;span style=&quot;font-size: 20px;&quot;&gt;שרת הורדה&amp;nbsp;&lt;/span&gt;" style="ellipse;whiteSpace=wrap;html=1;aspect=fixed;fillColor=#bac8d3;strokeColor=#23445d;" parent="qB0KGvQL3f1pAaCrQ6TO-1" vertex="1">
          <mxGeometry x="610" y="516.67" width="120" height="120" as="geometry" />
        </mxCell>
        <mxCell id="qB0KGvQL3f1pAaCrQ6TO-29" style="edgeStyle=orthogonalEdgeStyle;rounded=0;orthogonalLoop=1;jettySize=auto;html=1;entryX=0.97;entryY=0.701;entryDx=0;entryDy=0;entryPerimeter=0;startArrow=classic;startFill=1;" parent="qB0KGvQL3f1pAaCrQ6TO-1" source="qB0KGvQL3f1pAaCrQ6TO-17" target="qB0KGvQL3f1pAaCrQ6TO-16" edge="1">
          <mxGeometry relative="1" as="geometry">
            <Array as="points">
              <mxPoint x="530" y="197" />
              <mxPoint x="530" y="85" />
            </Array>
          </mxGeometry>
        </mxCell>
        <mxCell id="qB0KGvQL3f1pAaCrQ6TO-32" value="תקינות" style="ellipse;whiteSpace=wrap;html=1;aspect=fixed;" parent="qB0KGvQL3f1pAaCrQ6TO-1" vertex="1">
          <mxGeometry x="596.6400000000001" y="326.67" width="100" height="100" as="geometry" />
        </mxCell>
        <mxCell id="qB0KGvQL3f1pAaCrQ6TO-35" style="edgeStyle=orthogonalEdgeStyle;rounded=0;orthogonalLoop=1;jettySize=auto;html=1;entryX=0.769;entryY=0.916;entryDx=0;entryDy=0;entryPerimeter=0;startArrow=classic;startFill=1;" parent="qB0KGvQL3f1pAaCrQ6TO-1" source="qB0KGvQL3f1pAaCrQ6TO-19" target="qB0KGvQL3f1pAaCrQ6TO-8" edge="1">
          <mxGeometry relative="1" as="geometry">
            <Array as="points">
              <mxPoint x="221" y="497" />
              <mxPoint x="94" y="497" />
            </Array>
          </mxGeometry>
        </mxCell>
        <mxCell id="qB0KGvQL3f1pAaCrQ6TO-36" style="edgeStyle=orthogonalEdgeStyle;rounded=0;orthogonalLoop=1;jettySize=auto;html=1;entryX=0.904;entryY=0.713;entryDx=0;entryDy=0;entryPerimeter=0;startArrow=classic;startFill=1;" parent="qB0KGvQL3f1pAaCrQ6TO-1" source="qB0KGvQL3f1pAaCrQ6TO-18" target="qB0KGvQL3f1pAaCrQ6TO-8" edge="1">
          <mxGeometry relative="1" as="geometry">
            <Array as="points">
              <mxPoint x="381" y="477" />
              <mxPoint x="110" y="477" />
            </Array>
          </mxGeometry>
        </mxCell>
        <mxCell id="qB0KGvQL3f1pAaCrQ6TO-38" style="edgeStyle=orthogonalEdgeStyle;rounded=0;orthogonalLoop=1;jettySize=auto;html=1;entryX=0.995;entryY=0.371;entryDx=0;entryDy=0;entryPerimeter=0;startArrow=classic;startFill=1;" parent="qB0KGvQL3f1pAaCrQ6TO-1" source="qB0KGvQL3f1pAaCrQ6TO-28" target="qB0KGvQL3f1pAaCrQ6TO-8" edge="1">
          <mxGeometry relative="1" as="geometry">
            <Array as="points">
              <mxPoint x="668" y="477" />
              <mxPoint x="570" y="477" />
              <mxPoint x="570" y="395" />
            </Array>
          </mxGeometry>
        </mxCell>
        <mxCell id="qB0KGvQL3f1pAaCrQ6TO-56" value="&lt;span style=&quot;font-size: 20px;&quot;&gt;לקוח הורדה&amp;nbsp;&lt;/span&gt;" style="ellipse;whiteSpace=wrap;html=1;aspect=fixed;fillColor=#b1ddf0;strokeColor=#10739e;" parent="qB0KGvQL3f1pAaCrQ6TO-1" vertex="1">
          <mxGeometry x="400" y="540.76" width="100" height="100" as="geometry" />
        </mxCell>
        <mxCell id="qB0KGvQL3f1pAaCrQ6TO-57" style="edgeStyle=orthogonalEdgeStyle;rounded=0;orthogonalLoop=1;jettySize=auto;html=1;entryX=0.987;entryY=0.63;entryDx=0;entryDy=0;entryPerimeter=0;startArrow=classic;startFill=1;" parent="qB0KGvQL3f1pAaCrQ6TO-1" source="qB0KGvQL3f1pAaCrQ6TO-56" target="qB0KGvQL3f1pAaCrQ6TO-8" edge="1">
          <mxGeometry relative="1" as="geometry">
            <Array as="points">
              <mxPoint x="449" y="457" />
              <mxPoint x="120" y="457" />
            </Array>
          </mxGeometry>
        </mxCell>
        <mxCell id="qB0KGvQL3f1pAaCrQ6TO-20" value="תקיית קבצים מנוטרת" style="swimlane;whiteSpace=wrap;html=1;fillColor=#dae8fc;strokeColor=#6c8ebf;startSize=23;" parent="qB0KGvQL3f1pAaCrQ6TO-26" vertex="1">
          <mxGeometry x="431.3725490196079" width="276.078431372549" height="99.91666666666669" as="geometry" />
        </mxCell>
        <mxCell id="qB0KGvQL3f1pAaCrQ6TO-21" value="תקיית קבצים" style="swimlane;whiteSpace=wrap;html=1;fillColor=#dae8fc;strokeColor=#6c8ebf;startSize=23;" parent="qB0KGvQL3f1pAaCrQ6TO-26" vertex="1">
          <mxGeometry width="276.078431372549" height="99.91666666666669" as="geometry" />
        </mxCell>
        <mxCell id="qB0KGvQL3f1pAaCrQ6TO-22" style="edgeStyle=orthogonalEdgeStyle;rounded=0;orthogonalLoop=1;jettySize=auto;html=1;entryX=0.5;entryY=1;entryDx=0;entryDy=0;startArrow=classic;startFill=1;endArrow=none;endFill=0;" parent="qB0KGvQL3f1pAaCrQ6TO-26" source="qB0KGvQL3f1pAaCrQ6TO-13" target="qB0KGvQL3f1pAaCrQ6TO-20" edge="1">
          <mxGeometry relative="1" as="geometry" />
        </mxCell>
        <mxCell id="qB0KGvQL3f1pAaCrQ6TO-23" value="משתמש" style="shape=umlActor;verticalLabelPosition=bottom;verticalAlign=top;html=1;outlineConnect=0;" parent="qB0KGvQL3f1pAaCrQ6TO-26" vertex="1">
          <mxGeometry x="839.9952941176471" y="309.99666666666667" width="51.76470588235294" height="100" as="geometry" />
        </mxCell>
        <mxCell id="qB0KGvQL3f1pAaCrQ6TO-25" style="edgeStyle=orthogonalEdgeStyle;rounded=0;orthogonalLoop=1;jettySize=auto;html=1;entryX=0.25;entryY=1;entryDx=0;entryDy=0;startArrow=classic;startFill=1;" parent="qB0KGvQL3f1pAaCrQ6TO-26" source="qB0KGvQL3f1pAaCrQ6TO-16" target="qB0KGvQL3f1pAaCrQ6TO-20" edge="1">
          <mxGeometry relative="1" as="geometry">
            <Array as="points">
              <mxPoint x="517.6470588235295" y="166.66666666666669" />
              <mxPoint x="517.6470588235295" y="133.33333333333334" />
              <mxPoint x="500.39215686274514" y="133.33333333333334" />
            </Array>
          </mxGeometry>
        </mxCell>
        <mxCell id="qB0KGvQL3f1pAaCrQ6TO-39" value="&lt;font style=&quot;font-size: 20px;&quot;&gt;תקשורה רגילה&lt;/font&gt;" style="ellipse;whiteSpace=wrap;html=1;aspect=fixed;fillColor=#d5e8d4;strokeColor=#82b366;" parent="1" vertex="1">
          <mxGeometry x="1140" y="1204.28" width="120" height="120" as="geometry" />
        </mxCell>
        <mxCell id="qB0KGvQL3f1pAaCrQ6TO-40" value="&lt;font style=&quot;font-size: 20px;&quot;&gt;העלאה&lt;/font&gt;" style="ellipse;whiteSpace=wrap;html=1;aspect=fixed;fillColor=#ffcd28;strokeColor=#d79b00;gradientColor=#ffa500;" parent="1" vertex="1">
          <mxGeometry x="1279.9990196078431" y="1209.996666666667" width="120" height="120" as="geometry" />
        </mxCell>
        <mxCell id="qB0KGvQL3f1pAaCrQ6TO-41" value="&lt;font style=&quot;font-size: 20px;&quot;&gt;ניטור&amp;nbsp;&lt;/font&gt;" style="ellipse;whiteSpace=wrap;html=1;aspect=fixed;fillColor=#ffff88;strokeColor=#36393d;" parent="1" vertex="1">
          <mxGeometry x="1409.9982352941176" y="1209.996666666667" width="120" height="120" as="geometry" />
        </mxCell>
        <mxCell id="qB0KGvQL3f1pAaCrQ6TO-42" value="&lt;span style=&quot;font-size: 20px;&quot;&gt;לקוח הורדה&amp;nbsp;&lt;/span&gt;" style="ellipse;whiteSpace=wrap;html=1;aspect=fixed;fillColor=#b1ddf0;strokeColor=#10739e;" parent="1" vertex="1">
          <mxGeometry x="2068" y="820.0033333333333" width="100" height="100" as="geometry" />
        </mxCell>
        <mxCell id="qB0KGvQL3f1pAaCrQ6TO-43" value="&lt;span style=&quot;font-size: 20px;&quot;&gt;שרת הורדה&amp;nbsp;&lt;/span&gt;" style="ellipse;whiteSpace=wrap;html=1;aspect=fixed;fillColor=#bac8d3;strokeColor=#23445d;" parent="1" vertex="1">
          <mxGeometry x="1560" y="1209.9933333333333" width="120" height="120" as="geometry" />
        </mxCell>
        <mxCell id="qB0KGvQL3f1pAaCrQ6TO-48" style="edgeStyle=orthogonalEdgeStyle;rounded=0;orthogonalLoop=1;jettySize=auto;html=1;startArrow=classic;startFill=1;" parent="1" source="qB0KGvQL3f1pAaCrQ6TO-46" edge="1">
          <mxGeometry relative="1" as="geometry">
            <mxPoint x="1870" y="970" as="targetPoint" />
          </mxGeometry>
        </mxCell>
        <mxCell id="qB0KGvQL3f1pAaCrQ6TO-46" value="&lt;span style=&quot;font-size: 20px;&quot;&gt;לקוח הורדה&amp;nbsp;&lt;/span&gt;" style="ellipse;whiteSpace=wrap;html=1;aspect=fixed;fillColor=#b1ddf0;strokeColor=#10739e;" parent="1" vertex="1">
          <mxGeometry x="2068" y="960.0033333333333" width="100" height="100" as="geometry" />
        </mxCell>
        <mxCell id="qB0KGvQL3f1pAaCrQ6TO-47" style="edgeStyle=orthogonalEdgeStyle;rounded=0;orthogonalLoop=1;jettySize=auto;html=1;entryX=1.001;entryY=0.362;entryDx=0;entryDy=0;entryPerimeter=0;startArrow=classic;startFill=1;" parent="1" source="qB0KGvQL3f1pAaCrQ6TO-42" target="qB0KGvQL3f1pAaCrQ6TO-28" edge="1">
          <mxGeometry relative="1" as="geometry" />
        </mxCell>
        <mxCell id="qB0KGvQL3f1pAaCrQ6TO-49" value="&lt;span style=&quot;font-size: 20px;&quot;&gt;שרת הורדה&amp;nbsp;&lt;/span&gt;" style="ellipse;whiteSpace=wrap;html=1;aspect=fixed;fillColor=#bac8d3;strokeColor=#23445d;" parent="1" vertex="1">
          <mxGeometry x="1690" y="1209.9933333333333" width="120" height="120" as="geometry" />
        </mxCell>
        <mxCell id="qB0KGvQL3f1pAaCrQ6TO-53" style="edgeStyle=orthogonalEdgeStyle;rounded=0;orthogonalLoop=1;jettySize=auto;html=1;entryX=0.5;entryY=0;entryDx=0;entryDy=0;" parent="1" source="qB0KGvQL3f1pAaCrQ6TO-18" target="qB0KGvQL3f1pAaCrQ6TO-41" edge="1">
          <mxGeometry relative="1" as="geometry" />
        </mxCell>
        <mxCell id="qB0KGvQL3f1pAaCrQ6TO-54" style="edgeStyle=orthogonalEdgeStyle;rounded=0;orthogonalLoop=1;jettySize=auto;html=1;entryX=0.5;entryY=0;entryDx=0;entryDy=0;" parent="1" source="qB0KGvQL3f1pAaCrQ6TO-19" target="qB0KGvQL3f1pAaCrQ6TO-40" edge="1">
          <mxGeometry relative="1" as="geometry" />
        </mxCell>
        <mxCell id="qB0KGvQL3f1pAaCrQ6TO-55" style="edgeStyle=orthogonalEdgeStyle;rounded=0;orthogonalLoop=1;jettySize=auto;html=1;entryX=0.5;entryY=0;entryDx=0;entryDy=0;startArrow=classic;startFill=1;" parent="1" source="qB0KGvQL3f1pAaCrQ6TO-2" target="qB0KGvQL3f1pAaCrQ6TO-39" edge="1">
          <mxGeometry relative="1" as="geometry" />
        </mxCell>
        <mxCell id="qB0KGvQL3f1pAaCrQ6TO-59" style="edgeStyle=orthogonalEdgeStyle;rounded=0;orthogonalLoop=1;jettySize=auto;html=1;entryX=0.289;entryY=0.052;entryDx=0;entryDy=0;entryPerimeter=0;" parent="1" source="qB0KGvQL3f1pAaCrQ6TO-56" target="qB0KGvQL3f1pAaCrQ6TO-43" edge="1">
          <mxGeometry relative="1" as="geometry" />
        </mxCell>
        <mxCell id="qB0KGvQL3f1pAaCrQ6TO-60" style="edgeStyle=orthogonalEdgeStyle;rounded=0;orthogonalLoop=1;jettySize=auto;html=1;entryX=0;entryY=0;entryDx=0;entryDy=0;" parent="1" source="qB0KGvQL3f1pAaCrQ6TO-27" target="qB0KGvQL3f1pAaCrQ6TO-49" edge="1">
          <mxGeometry relative="1" as="geometry" />
        </mxCell>
        <mxCell id="ycQtoZm46jkMJNeLyYT_-1" value="&lt;font size=&quot;1&quot; style=&quot;&quot;&gt;&lt;b style=&quot;font-size: 24px;&quot;&gt;לקוח כולל&lt;/b&gt;&lt;/font&gt;" style="text;html=1;align=center;verticalAlign=middle;resizable=0;points=[];autosize=1;strokeColor=none;fillColor=none;" vertex="1" parent="1">
          <mxGeometry x="1460" y="140" width="120" height="40" as="geometry" />
        </mxCell>
      </root>
    </mxGraphModel>
  </diagram>
</mxfile>
